<svg width="22" height="22" viewBox="0 0 22 22" fill="none" xmlns="http://www.w3.org/2000/svg">
<path d="M12.3483 14.182C12.2808 14.245 12.2266 14.3209 12.189 14.4052C12.1514 14.4895 12.1312 14.5806 12.1296 14.6729C12.128 14.7652 12.145 14.8569 12.1795 14.9425C12.2141 15.0281 12.2656 15.1059 12.3309 15.1712C12.3961 15.2364 12.4739 15.2879 12.5595 15.3225C12.6451 15.3571 12.7368 15.374 12.8291 15.3724C12.9214 15.3708 13.0125 15.3506 13.0968 15.313C13.1811 15.2754 13.257 15.2213 13.32 15.1537L16.9866 11.487C17.1154 11.3581 17.1877 11.1834 17.1877 11.0012C17.1877 10.819 17.1154 10.6443 16.9866 10.5154L13.32 6.84872C13.257 6.78117 13.1811 6.727 13.0968 6.68942C13.0125 6.65184 12.9214 6.63164 12.8291 6.63001C12.7368 6.62838 12.6451 6.64536 12.5595 6.67994C12.4739 6.71452 12.3961 6.76598 12.3309 6.83127C12.2656 6.89655 12.2141 6.97431 12.1795 7.05992C12.145 7.14553 12.128 7.23722 12.1296 7.32953C12.1312 7.42184 12.1514 7.51288 12.189 7.59721C12.2266 7.68154 12.2808 7.75744 12.3483 7.82038L14.8416 10.3137L5.95915 10.3137C5.77682 10.3137 5.60195 10.3861 5.47302 10.5151C5.34408 10.644 5.27165 10.8189 5.27165 11.0012C5.27165 11.1835 5.34408 11.3584 5.47302 11.4873C5.60195 11.6163 5.77682 11.6887 5.95915 11.6887H14.8416L12.3483 14.182Z" fill="white"/>
</svg>
