<svg width="12" height="12" viewBox="0 0 12 12" fill="none" xmlns="http://www.w3.org/2000/svg">
<path d="M8.24897 2.49846V1.49846M3.74898 2.49846V1.49846M1.62398 3.99845H10.374M1.49898 5.02045C1.49898 3.96295 1.49898 3.43396 1.71698 3.02996C1.914 2.66952 2.2199 2.38059 2.59098 2.20446C3.01898 1.99846 3.57898 1.99846 4.69898 1.99846H7.29897C8.41897 1.99846 8.97897 1.99846 9.40697 2.20446C9.78347 2.38546 10.089 2.67446 10.281 3.02946C10.499 3.43446 10.499 3.96345 10.499 5.02095V7.47695C10.499 8.53445 10.499 9.06344 10.281 9.46744C10.084 9.82788 9.77805 10.1168 9.40697 10.2929C8.97897 10.4984 8.41897 10.4984 7.29897 10.4984H4.69898C3.57898 10.4984 3.01898 10.4984 2.59098 10.2924C2.21998 10.1164 1.91408 9.82769 1.71698 9.46744C1.49898 9.06244 1.49898 8.53345 1.49898 7.47595V5.02045Z" stroke="#1F0954" stroke-width="0.697982" stroke-linecap="round" stroke-linejoin="round"/>
</svg>
