<svg width="12" height="12" viewBox="0 0 12 12" fill="none" xmlns="http://www.w3.org/2000/svg">
<path d="M8.2495 2.49856V1.49856M3.7495 2.49856V1.49856M1.62451 3.99855H10.3745M1.49951 5.02055C1.49951 3.96305 1.49951 3.43405 1.71751 3.03005C1.91452 2.66962 2.22043 2.38069 2.59151 2.20456C3.01951 1.99856 3.5795 1.99856 4.6995 1.99856H7.2995C8.4195 1.99856 8.97949 1.99856 9.40749 2.20456C9.78399 2.38556 10.0895 2.67455 10.2815 3.02955C10.4995 3.43455 10.4995 3.96355 10.4995 5.02105V7.47705C10.4995 8.53454 10.4995 9.06354 10.2815 9.46754C10.0845 9.82797 9.77857 10.1169 9.40749 10.293C8.97949 10.4985 8.4195 10.4985 7.2995 10.4985H4.6995C3.5795 10.4985 3.01951 10.4985 2.59151 10.2925C2.2205 10.1165 1.9146 9.82779 1.71751 9.46754C1.49951 9.06254 1.49951 8.53354 1.49951 7.47605V5.02055Z" stroke="#1F0954" stroke-width="0.697982" stroke-linecap="round" stroke-linejoin="round"/>
</svg>
