<svg width="14" height="14" viewBox="0 0 14 14" fill="none" xmlns="http://www.w3.org/2000/svg">
<path d="M7.00001 8.74998C7.96651 8.74998 8.75001 7.96648 8.75001 6.99998C8.75001 6.03348 7.96651 5.24998 7.00001 5.24998C6.03352 5.24998 5.25002 6.03348 5.25002 6.99998C5.25002 7.96648 6.03352 8.74998 7.00001 8.74998Z" stroke="white" stroke-width="0.739084" stroke-miterlimit="10" stroke-linecap="round" stroke-linejoin="round"/>
<path d="M1.16663 7.51333V6.48666C1.16663 5.88 1.66247 5.37833 2.27497 5.37833C3.3308 5.37833 3.76246 4.63167 3.23163 3.71584C2.9283 3.19084 3.10913 2.50834 3.63996 2.205L4.64913 1.62751C5.10996 1.35334 5.70496 1.51667 5.97913 1.9775L6.04329 2.08834C6.56829 3.00417 7.43162 3.00417 7.96246 2.08834L8.02662 1.9775C8.30079 1.51667 8.89579 1.35334 9.35662 1.62751L10.3658 2.205C10.8966 2.50834 11.0775 3.19084 10.7741 3.71584C10.2433 4.63167 10.675 5.37833 11.7308 5.37833C12.3375 5.37833 12.8391 5.87417 12.8391 6.48666V7.51333C12.8391 8.12 12.3433 8.62166 11.7308 8.62166C10.675 8.62166 10.2433 9.36833 10.7741 10.2842C11.0775 10.815 10.8966 11.4917 10.3658 11.795L9.35662 12.3725C8.89579 12.6467 8.30079 12.4833 8.02662 12.0225L7.96246 11.9117C7.43746 10.9958 6.57413 10.9958 6.04329 11.9117L5.97913 12.0225C5.70496 12.4833 5.10996 12.6467 4.64913 12.3725L3.63996 11.795C3.10913 11.4917 2.9283 10.8092 3.23163 10.2842C3.76246 9.36833 3.3308 8.62166 2.27497 8.62166C1.66247 8.62166 1.16663 8.12 1.16663 7.51333Z" stroke="white" stroke-width="0.739084" stroke-miterlimit="10" stroke-linecap="round" stroke-linejoin="round"/>
</svg>
