<svg width="13" height="8" viewBox="0 0 13 8" fill="none" xmlns="http://www.w3.org/2000/svg">
<path d="M0 0.178125C0 0.0797491 0.079749 0 0.178124 0H4.22509C4.32347 0 4.40322 0.079749 4.40322 0.178124V7.7349C4.40322 7.83328 4.32347 7.91303 4.22509 7.91303H0.178125C0.0797493 7.91303 0 7.83328 0 7.7349V0.178125ZM8.59676 0.178125C8.59676 0.0797491 8.67651 0 8.77488 0H12.8218C12.9202 0 13 0.079749 13 0.178124V7.7349C13 7.83328 12.9202 7.91303 12.8218 7.91303H8.77488C8.67651 7.91303 8.59676 7.83328 8.59676 7.7349V0.178125Z" fill="#186648"/>
</svg>
